<svg xmlns="http://www.w3.org/2000/svg" height="1024" preserveAspectRatio="none" style="display: block;" version="1.1" viewBox="0 0 2048 2048" width="1024">
<path d="M 0 0 L 2048 0 L 2048 2048 L 0 2048 L 0 0 z" fill="rgb(30,30,36)" transform="translate(0,0)"></path>
<path d="M 956.868 618.389 C 959.741 618.109 960.601 617.441 962.333 618.717 C 959.675 620.847 959.607 620.832 956.48 622.243 C 921.52 641.7 873.693 680.919 899.106 728.161 C 919.408 765.903 976.475 771.546 1013.9 791.334 C 1097.35 834.863 1151.56 919.285 1156.41 1013.28 C 1157.43 1035.41 1154.51 1060.34 1150.69 1082.17 C 1133.9 1013.11 1105.1 958.299 1043.37 919.783 C 938.753 854.514 799.157 891.118 737.517 997.025 C 704.441 1053.53 702.943 1109.31 719.004 1171.48 C 742.619 1260.32 800.021 1336.4 878.959 1383.5 C 928.992 1413.09 975.716 1424.69 1032.78 1429.28 C 1028.94 1431.47 1025.23 1430.69 1020.68 1431.1 C 945.09 1431.36 859.613 1405.72 796.059 1364.93 C 702.678 1304.99 643.319 1218.35 619.319 1110.71 C 596.398 1006.76 615.356 897.975 672.085 807.912 C 719.83 731.527 791.347 672.942 875.637 641.167 C 904.17 630.499 927.339 624.91 956.868 618.389 z" fill="rgb(59,130,246)" transform="translate(0,0)"></path>
<path d="M 1018.66 615.995 C 1127.99 613.415 1233.85 654.466 1312.87 730.08 C 1392.08 805.843 1437.36 910.372 1438.44 1019.98 C 1438.97 1129.59 1396.08 1234.96 1319.15 1313.04 C 1260.08 1373.62 1180.53 1412.82 1097.88 1428.74 C 1094.57 1429.49 1094.35 1429.49 1090.94 1429.51 L 1090.42 1428.66 L 1093.99 1426.76 C 1120.71 1411.53 1151.43 1386.62 1155.15 1353.62 C 1162.78 1285.87 1083.89 1282.76 1040.82 1260.55 C 1004.62 1242.29 973.067 1215.99 948.58 1183.67 C 913.564 1137.88 894.4 1081.94 893.983 1024.3 C 893.943 1003.74 896.209 986.396 898.928 966.148 C 902.894 977.722 905.648 991.188 909.763 1003.24 C 921.056 1036.32 939.975 1071.16 964.726 1096.06 C 1006.43 1137.66 1062.97 1160.96 1121.87 1160.82 C 1237.64 1160.8 1339.7 1064.5 1340.12 947.511 C 1340.42 862.355 1299.02 772.809 1238.6 713.46 C 1191.18 667.075 1131.09 635.764 1065.91 623.473 C 1054.82 621.275 1035.46 617.901 1024.48 618.001 C 1022.55 617.303 1020.61 616.634 1018.66 615.995 z" fill="rgb(239,68,68)" transform="translate(0,0)"></path>
<path d="M 784.607 1111.43 L 786.838 1112.11 C 814.39 1216.21 923.815 1304.57 1025.73 1334.03 C 1038.6 1337.75 1059.02 1342.15 1072.72 1343.15 L 1071.13 1346 C 1003.45 1346.46 950.542 1334.2 894.924 1292.34 C 835.74 1247.8 794.494 1185.65 784.607 1111.43 z" fill="rgb(59,130,246)" transform="translate(0,0)"></path>
<path d="M 976.463 709.345 C 1027.24 704.724 1068.12 708.658 1114.86 731.327 C 1191.66 768.572 1250.24 843 1265.6 927.188 L 1263.13 928.714 C 1255.71 902.274 1235.99 868.092 1219.37 846.564 C 1162.98 772.233 1079.07 723.703 986.518 711.901 C 984.11 711.931 968.23 712.488 967.668 711.298 C 967.711 710.99 967.653 711.151 967.876 710.821 L 968.291 711.339 L 968.709 710.391 C 970.805 709.673 974.26 709.498 976.463 709.345 z" fill="rgb(239,68,68)" transform="translate(0,0)"></path>
<path d="M 986.518 711.901 C 984.11 711.931 968.23 712.488 967.668 711.298 C 967.711 710.99 967.653 711.151 967.876 710.821 L 968.291 711.339 L 968.709 710.391 C 970.805 709.673 974.26 709.498 976.463 709.345 C 976.539 711.304 983.682 711.232 986.518 711.901 z" fill="rgb(129,54,56)" transform="translate(0,0)"></path>
<path d="M 1032.78 1429.28 C 1037.95 1429.12 1043.75 1430.02 1049.74 1429.95 C 1047.69 1430.64 1045.64 1431.35 1043.6 1432.08 C 1035.65 1431.57 1028.89 1432.44 1020.68 1431.1 C 1025.23 1430.69 1028.94 1431.47 1032.78 1429.28 z" fill="rgb(67,81,149)" transform="translate(0,0)"></path>
<path d="M 1024.48 618.001 C 1021.47 618.103 999.513 617.904 998.461 617.223 L 998.446 617.045 C 999.975 615.632 1016.14 615.826 1018.66 615.995 C 1020.61 616.634 1022.55 617.303 1024.48 618.001 z" fill="rgb(129,54,56)" transform="translate(0,0)"></path>
<path d="M 1265.6 927.188 C 1267.29 931.35 1267.51 939.093 1267.51 943.632 C 1266.11 938.594 1264.32 933.668 1263.13 928.714 L 1265.6 927.188 z" fill="rgb(129,54,56)" transform="translate(0,0)"></path>
<path d="M 784.607 1111.43 C 783.836 1109.27 782.735 1102.98 783.459 1100.86 C 783.706 1100.67 783.574 1100.71 783.851 1100.73 C 785.191 1101.62 786.601 1110.55 786.838 1112.11 L 784.607 1111.43 z" fill="rgb(67,81,149)" transform="translate(0,0)"></path>
<path d="M 1072.72 1343.15 C 1083.57 1343.97 1080.2 1346.36 1071.13 1346 L 1072.72 1343.15 z" fill="rgb(67,81,149)" transform="translate(0,0)"></path>
<metadata><recraft-signature>{"signed_by": "recraft", "signature_b64": "D4vqN7Wtw+xSZF/TUk3tnx6k0OGTSTInRfqYCAcyBKqubUak5TqQnhSD3sxjRFTK8N96zfvN7FYd9Ro9k/glDw==", "signing_algo": "Ed25519", "generation_timestamp": 1775316282, "identifier": "b67c1203-0f18-453a-bd42-6e2531529edb"}</recraft-signature></metadata></svg>